<?xml version="1.0" encoding="iso-8859-1"?>
<!-- Generator: Adobe Illustrator 21.0.0, SVG Export Plug-In . SVG Version: 6.00 Build 0)  -->
<svg version="1.1" id="Capa_1" xmlns="http://www.w3.org/2000/svg" xmlns:xlink="http://www.w3.org/1999/xlink" x="0px" y="0px"
	 viewBox="0 0 510.164 510.164" style="enable-background:new 0 0 510.164 510.164;" xml:space="preserve">
<g>
	<polygon style="fill:#98D9D5;" points="334.162,265.782 334.162,382.562 232.782,408.312 219.092,411.782 139.922,431.892 
		137.972,432.382 49.742,335.852 60.292,325.302 119.812,265.782 	"/>
	<polygon style="fill:#84BDB9;" points="79.743,335.852 90.294,325.302 149.814,265.782 119.812,265.782 60.292,325.302 
		49.742,335.852 137.972,432.382 139.922,431.892 162.325,426.201 	"/>
	<polygon style="fill:#C1E8E6;" points="112.202,273.392 60.292,325.302 40.352,243.242 	"/>
	<polygon style="fill:#98D9D5;" points="73.76,257.261 40.352,243.242 60.292,325.302 84.428,301.165 	"/>
	<polygon style="fill:#98D9D5;" points="219.092,411.782 219.092,502.662 139.922,431.892 	"/>
	<polygon style="fill:#C1E8E6;" points="301.932,502.662 219.092,502.662 219.092,449.572 251.302,470.222 251.312,470.222 	"/>
	<polygon style="fill:#98D9D5;" points="301.932,470.222 251.302,470.222 219.092,449.572 219.092,411.782 232.782,408.312 	"/>
	<polygon style="fill:#98D9D5;" points="435.122,278.292 334.162,379.252 334.162,42.712 367.292,96.552 384.262,84.392 	"/>
	<polygon style="fill:#84BDB9;" points="364.164,91.468 334.162,42.712 334.162,379.252 364.164,349.25 	"/>
	<polygon style="fill:none;" points="421.912,54.102 421.802,54.102 419.802,30.232 	"/>
	<polygon style="fill:#84BDB9;" points="469.812,54.102 421.912,54.102 419.802,30.232 420.102,29.612 	"/>
	<polygon style="fill:#84BDB9;" points="422.182,57.202 384.262,84.392 367.292,96.552 334.162,42.712 367.292,7.502 
		419.072,22.002 419.732,29.432 420.102,29.612 419.802,30.232 421.802,54.102 421.912,54.102 	"/>
	<polygon style="fill:none;" points="421.912,54.102 421.802,54.102 419.802,30.232 	"/>
</g>
<path d="M473.127,47.37L426.829,24.57l-0.285-3.231c-0.274-3.108-2.443-5.722-5.448-6.563L369.319,0.278
	c-2.689-0.753-5.571,0.05-7.484,2.082l-33.138,35.208c-0.088,0.093-0.154,0.2-0.236,0.296c-0.141,0.167-0.28,0.333-0.406,0.511
	c-0.115,0.162-0.217,0.329-0.317,0.497c-0.105,0.176-0.207,0.353-0.298,0.538c-0.089,0.181-0.165,0.365-0.239,0.552
	c-0.074,0.188-0.144,0.375-0.203,0.569c-0.059,0.195-0.106,0.392-0.149,0.591c-0.042,0.193-0.081,0.387-0.108,0.585
	c-0.029,0.212-0.042,0.424-0.053,0.638c-0.006,0.122-0.03,0.24-0.03,0.364v215.576H212.99c-4.143,0-7.5,3.358-7.5,7.5
	s3.357,7.5,7.5,7.5h113.669v103.444L140.48,424.012l-80.365-87.929l62.799-62.799h59.753c4.143,0,7.5-3.358,7.5-7.5
	s-3.357-7.5-7.5-7.5h-62.859c-1.989,0-3.896,0.79-5.304,2.197l-4.045,4.045l-67.206-28.202c-2.61-1.096-5.615-0.628-7.768,1.208
	c-2.154,1.836-3.091,4.729-2.423,7.479l18.949,77.962l-7.574,7.574c-2.836,2.836-2.938,7.402-0.232,10.363l88.232,96.536
	c1.35,1.477,3.21,2.319,5.15,2.42l76.508,68.389c0.036,0.032,0.075,0.059,0.111,0.091c0.093,0.08,0.188,0.156,0.284,0.231
	c0.089,0.07,0.179,0.138,0.271,0.203c0.101,0.072,0.205,0.141,0.31,0.208c0.092,0.059,0.185,0.115,0.279,0.169
	c0.111,0.064,0.224,0.125,0.338,0.184c0.093,0.047,0.186,0.092,0.28,0.135c0.12,0.055,0.241,0.108,0.364,0.157
	c0.094,0.038,0.19,0.071,0.286,0.104c0.125,0.044,0.251,0.087,0.379,0.124c0.103,0.03,0.207,0.054,0.311,0.08
	c0.123,0.03,0.245,0.061,0.37,0.084c0.129,0.025,0.258,0.042,0.388,0.06c0.103,0.014,0.204,0.032,0.309,0.042
	c0.236,0.022,0.472,0.035,0.709,0.036c0.003,0,0.005,0,0.008,0h82.842c3.33,0,6.262-2.196,7.197-5.392
	c0.937-3.196-0.347-6.626-3.15-8.423l-29.075-18.632h25.028c3.109,0,5.896-1.918,7.006-4.822c1.109-2.904,0.313-6.192-2.003-8.266
	l-58.663-52.518l87.73-22.281c3.326-0.844,5.654-3.838,5.654-7.269v-0.199l98.769-98.768c1.885-1.885,2.627-4.628,1.951-7.207
	l-13.66-52.071c-1.051-4.007-5.154-6.403-9.158-5.351c-4.007,1.051-6.402,5.151-5.352,9.158l12.568,47.908l-85.118,85.118V69.206
	l19.25,31.281c1.091,1.772,2.868,3.012,4.908,3.422c0.251,0.051,0.504,0.087,0.756,0.112c0.071,0.007,0.141,0.006,0.212,0.01
	c0.17,0.012,0.341,0.025,0.511,0.025c0.008,0,0.016-0.002,0.024-0.002c0.342-0.001,0.682-0.032,1.019-0.079
	c0.083-0.012,0.165-0.026,0.248-0.04c0.322-0.056,0.64-0.128,0.952-0.226c0.018-0.005,0.037-0.009,0.056-0.015
	c0.326-0.105,0.642-0.24,0.953-0.389c0.076-0.036,0.15-0.074,0.225-0.113c0.308-0.161,0.61-0.336,0.896-0.541l8.103-5.809
	l26.552,101.216c1.051,4.006,5.151,6.402,9.158,5.351c4.006-1.051,6.402-5.151,5.352-9.158L392.822,87.483l33.728-24.182
	c0.665-0.477,1.224-1.059,1.69-1.702h41.574c3.486,0,6.514-2.403,7.305-5.799S476.254,48.911,473.127,47.37z M51.147,255.904
	L99,275.985l-34.57,34.57L51.147,255.904z M369.646,15.947l42.411,11.875l2.18,25.85l-44.771,32.1l-25.911-42.104L369.646,15.947z
	 M211.593,485.9l-56.169-50.208l56.169-14.265V485.9z M226.593,495.163v-31.875l49.738,31.875H226.593z M282.313,462.717h-28.812
	l-26.907-17.244v-27.855l4.162-1.057L282.313,462.717z M428.772,46.599l-0.401-4.55l9.238,4.55H428.772z"/>
<g>
</g>
<g>
</g>
<g>
</g>
<g>
</g>
<g>
</g>
<g>
</g>
<g>
</g>
<g>
</g>
<g>
</g>
<g>
</g>
<g>
</g>
<g>
</g>
<g>
</g>
<g>
</g>
<g>
</g>
</svg>
