<svg id="svg" version="1.1" width="400" height="400" viewBox="0 0 400 400" xmlns="http://www.w3.org/2000/svg" xmlns:xlink="http://www.w3.org/1999/xlink" ><g id="svgg"><path id="path0" d="M166.901 106.250 C 166.842 106.498,166.128 109.985,165.313 114.000 C 164.498 118.015,163.460 123.100,163.006 125.300 C 162.032 130.023,158.837 145.655,158.000 149.800 C 157.678 151.395,157.224 153.600,156.992 154.700 C 156.761 155.800,155.854 160.210,154.978 164.500 C 154.102 168.790,152.990 174.235,152.506 176.600 C 152.022 178.965,150.991 184.005,150.216 187.800 C 149.441 191.595,148.261 197.355,147.595 200.600 C 145.818 209.255,143.073 222.668,142.398 226.000 C 142.075 227.595,141.309 231.330,140.696 234.300 C 139.600 239.612,138.478 245.102,137.080 251.993 C 136.690 253.914,136.327 255.556,136.274 255.643 C 136.220 255.729,144.455 255.800,154.574 255.800 L 172.972 255.800 173.195 254.650 C 173.318 254.018,173.818 251.610,174.306 249.300 C 174.793 246.990,175.683 242.715,176.283 239.800 C 176.883 236.885,177.915 231.890,178.577 228.700 C 179.239 225.510,180.331 220.245,181.002 217.000 C 181.673 213.755,182.391 210.290,182.598 209.300 C 183.844 203.316,187.509 185.639,188.091 182.800 C 188.238 182.085,188.772 179.525,189.279 177.112 C 189.786 174.699,190.200 172.692,190.200 172.654 C 190.200 172.360,223.626 172.761,224.883 173.069 C 231.175 174.611,232.253 177.785,230.127 188.500 C 229.603 191.140,228.826 195.055,228.400 197.200 C 227.462 201.925,225.722 210.772,223.797 220.600 C 223.011 224.615,221.931 230.105,221.397 232.800 C 220.864 235.495,219.785 240.985,219.001 245.000 C 218.216 249.015,217.413 253.095,217.215 254.067 C 216.961 255.315,216.921 255.859,217.078 255.919 C 217.200 255.965,225.895 255.980,236.400 255.952 L 255.499 255.900 256.134 252.300 C 256.484 250.320,257.048 247.080,257.389 245.100 C 257.730 243.120,258.139 240.780,258.300 239.900 C 258.460 239.020,258.869 236.725,259.209 234.800 C 259.548 232.875,259.994 230.355,260.200 229.200 C 260.406 228.045,261.256 223.230,262.089 218.500 C 262.922 213.770,263.960 207.920,264.395 205.500 C 264.830 203.080,266.151 195.700,267.330 189.100 L 269.474 177.100 269.486 173.400 C 269.506 166.939,268.154 162.819,264.400 157.907 C 259.903 152.020,250.210 147.298,239.100 145.580 C 233.136 144.658,231.822 144.608,213.437 144.604 C 196.900 144.600,195.979 144.581,196.076 144.250 C 196.133 144.058,196.820 140.615,197.604 136.600 C 198.388 132.585,199.467 127.095,200.002 124.400 C 202.729 110.666,203.600 106.216,203.600 106.018 C 203.600 105.862,198.360 105.800,185.304 105.800 L 167.008 105.800 166.901 106.250 M30.704 144.844 C 30.656 144.985,30.472 145.820,30.295 146.700 C 30.118 147.580,29.266 151.765,28.403 156.000 C 27.540 160.235,26.597 164.870,26.307 166.300 C 26.017 167.730,25.516 170.160,25.192 171.700 C 24.576 174.637,22.327 185.601,20.496 194.600 C 19.903 197.515,18.689 203.455,17.799 207.800 C 16.909 212.145,15.917 217.005,15.595 218.600 C 15.273 220.195,14.509 223.930,13.896 226.900 C 13.283 229.870,12.295 234.685,11.700 237.600 C 11.105 240.515,9.891 246.455,9.002 250.800 C 8.113 255.145,7.121 260.005,6.798 261.600 C 6.476 263.195,5.666 267.155,4.998 270.400 C 3.250 278.901,2.363 283.238,1.214 288.900 C 0.656 291.650,0.153 294.103,0.096 294.350 L -0.008 294.800 18.283 294.800 C 35.529 294.800,36.579 294.780,36.676 294.450 C 36.733 294.257,38.006 287.890,39.506 280.300 C 41.005 272.710,42.701 264.160,43.273 261.300 L 44.315 256.100 66.107 255.988 C 89.783 255.867,89.186 255.894,94.791 254.686 C 110.270 251.352,124.367 242.535,133.780 230.300 C 134.118 229.860,134.473 229.405,134.569 229.289 C 135.035 228.724,137.802 224.579,138.300 223.700 C 142.094 217.012,144.120 212.070,145.798 205.413 C 146.511 202.582,147.303 198.063,147.500 195.700 C 147.574 194.820,147.664 193.901,147.702 193.659 C 148.388 189.230,147.807 180.120,146.490 174.642 C 144.478 166.278,138.970 157.949,132.900 154.091 C 132.570 153.881,132.255 153.654,132.200 153.587 C 131.780 153.076,127.054 150.504,124.700 149.506 C 120.066 147.541,114.027 146.042,106.800 145.062 C 103.466 144.610,30.855 144.402,30.704 144.844 M282.907 145.143 C 282.830 145.450,282.187 148.535,281.477 152.000 C 278.785 165.147,278.383 167.109,276.805 174.800 C 275.913 179.145,275.057 183.330,274.903 184.100 C 274.749 184.870,274.030 188.380,273.305 191.900 C 271.482 200.753,270.315 206.437,269.404 210.900 C 267.347 220.985,265.519 229.911,264.695 233.900 C 264.195 236.320,263.521 239.605,263.198 241.200 C 262.875 242.795,262.108 246.530,261.494 249.500 C 260.880 252.470,259.892 257.285,259.298 260.200 C 258.148 265.845,256.108 275.784,254.784 282.200 C 254.341 284.345,253.621 287.900,253.184 290.100 C 252.747 292.300,252.341 294.258,252.281 294.451 C 252.178 294.784,253.105 294.800,270.534 294.751 L 288.895 294.700 289.237 293.000 C 289.646 290.971,291.496 281.564,293.998 268.800 C 296.385 256.620,296.446 256.324,296.583 256.160 C 296.648 256.082,306.511 255.986,318.500 255.946 C 342.004 255.868,340.971 255.911,346.595 254.779 C 361.971 251.683,377.227 242.138,386.363 229.900 C 387.696 228.114,389.171 225.959,389.991 224.600 C 390.555 223.665,391.102 222.765,391.207 222.600 C 393.981 218.247,397.245 209.528,398.696 202.600 C 399.861 197.037,400.439 185.647,399.817 180.531 C 397.469 161.220,385.522 149.643,363.988 145.810 C 357.608 144.674,359.787 144.731,319.873 144.656 L 283.047 144.587 282.907 145.143 M89.234 172.801 C 95.090 173.223,100.712 174.943,103.395 177.133 C 108.333 181.163,109.880 185.259,109.137 192.339 C 107.085 211.909,99.991 222.080,85.600 226.087 C 79.372 227.821,77.322 228.000,63.689 228.000 L 51.992 228.000 52.098 227.550 C 52.156 227.303,52.660 224.445,53.218 221.200 C 54.826 211.850,55.921 205.502,56.891 199.900 C 57.386 197.040,58.196 192.360,58.690 189.500 C 59.185 186.640,60.042 181.701,60.595 178.525 C 61.148 175.349,61.600 172.717,61.600 172.675 C 61.600 172.505,86.711 172.619,89.234 172.801 M341.406 172.799 C 355.931 173.846,362.545 180.374,361.315 192.448 C 359.090 214.280,350.879 224.012,331.800 227.432 C 328.234 228.072,304.398 228.270,304.403 227.660 C 304.407 227.262,304.712 225.382,305.481 221.000 C 305.761 219.405,306.208 216.840,306.475 215.300 C 309.223 199.449,311.342 187.211,311.894 184.000 C 312.262 181.855,312.858 178.413,313.218 176.350 L 313.873 172.600 326.287 172.602 C 333.114 172.603,339.918 172.691,341.406 172.799 " stroke="none" fill="#4c4c4c" fill-rule="evenodd"></path><path id="path1" d="" stroke="none" fill="#504c4c" fill-rule="evenodd"></path><path id="path2" d="" stroke="none" fill="#504c4c" fill-rule="evenodd"></path><path id="path3" d="" stroke="none" fill="#504c4c" fill-rule="evenodd"></path><path id="path4" d="" stroke="none" fill="#504c4c" fill-rule="evenodd"></path></g></svg>